Transylmania 2009/2011 (1080p)       

  

Verenigde Staten
Komedie / Horror
92 minuten

geregisseerd door David Hillenbrand en Scott Hillenbrand
met Patrick Cavanaugh, James DeBello en Tony Denman

Een groep niet al te snuggere Amerikaanse studenten studeert voor een semester in het buitenland aan de Razvan Universiteit. De universiteit zit in een eeuwenoud kasteel diep in het vervloekte land van Transylvanië. Op Razvan lopen heel wat rare figuren rond. Kasteel Razvan zou vroeger overgenomen zijn door de gevreesde vampierenkoning Radu. En deze is nu terug...


English


Spoof horror in which a group of college kids do a semester abroad in Romania and realise that if the partying doesn't kill them, the vampires just might! 
 
http://www.imdb.com/title/tt0936471/



..........Ondertitels: Nederlands
..........Video: 1920*1080
..........Frames: 23.976
..........Audio: English (dd5.1 & DTS)
..........Container: x264 (.MKV)
..........Group: a.b.boneless & a.b.x264
Thanks     StreamTeam 
Spotinformatie 
Categorie : Beeld 
Formaat : x264HD 
Bron : Retail
 
Ondertitels : Nederlands (instelbaar)

Format                           : Matroska
File size                        : 6.86 GiB
Duration                         : 1h 36mn
Overall bit rate                 : 10.2 Mbps
Encoded date                     : UTC 2011-01-16 09:46:51
Writing application              : mkvmerge v2.3.0 ('Freak U') built on Sep  8 2008 18:32:16
Writing library                  : libebml v0.7.7 + libmatroska v0.8.1

Video
ID                               : 1
Format                           : AVC
Format/Info                      : Advanced Video Codec
Format profile                   : High@L4.1
Format settings, CABAC           : Yes
Format settings, ReFrames        : 4 frames
Format settings, GOP             : M=1, N=16
Muxing mode                      : Container profile=Unknown@4.1
Codec ID                         : V_MPEG4/ISO/AVC
Duration                         : 1h 36mn
Bit rate                         : 8 229 Kbps
Width                            : 1 920 pixels
Height                           : 1 080 pixels
Display aspect ratio             : 16:9
Frame rate                       : 23.976 fps
Color space                      : YUV
Chroma subsampling               : 4:2:0
Bit depth                        : 8 bits
Scan type                        : Progressive
Bits/(Pixel*Frame)               : 0.166
Stream size                      : 5.41 GiB (79%)
Writing library                  : x264 core 112 r1867 22bfd31
Encoding settings                : cabac=1 / ref=4 / deblock=1:0:0 / analyse=0x3:0x133 / me=umh / subme=7 / psy=1 / psy_rd=1.00:0.00 / mixed_ref=1 / me_range=16 / chroma_me=1 / trellis=1 / 8x8dct=1 / cqm=0 / deadzone=21,11 / fast_pskip=0 / chroma_qp_offset=-1 / threads=12 / sliced_threads=0 / nr=0 / decimate=1 / interlaced=0 / constrained_intra=0 / bframes=3 / b_pyramid=2 / b_adapt=1 / b_bias=0 / direct=3 / weightb=1 / open_gop=0 / weightp=2 / keyint=250 / keyint_min=23 / scenecut=40 / intra_refresh=0 / rc_lookahead=40 / rc=2pass / mbtree=1 / bitrate=8229 / ratetol=1.0 / qcomp=0.60 / qpmin=10 / qpmax=51 / qpstep=4 / cplxblur=20.0 / qblur=0.5 / ip_ratio=1.40 / aq=1:1.00
Language                         : English

Audio #1
ID                               : 2
Format                           : AC-3
Format/Info                      : Audio Coding 3
Mode extension                   : CM (complete main)
Codec ID                         : A_AC3
Duration                         : 1h 36mn
Bit rate mode                    : Constant
Bit rate                         : 448 Kbps
Channel(s)                       : 6 channels
Channel positions                : Front: L C R, Side: L R, LFE
Sampling rate                    : 48.0 KHz
Bit depth                        : 16 bits
Stream size                      : 309 MiB (4%)
Title                            : English AC3
Language                         : English

Audio #2
ID                               : 3
Format                           : DTS
Format/Info                      : Digital Theater Systems
Codec ID                         : A_DTS
Duration                         : 1h 36mn
Bit rate mode                    : Constant
Bit rate                         : 1 510 Kbps
Channel(s)                       : 6 channels
Channel positions                : Front: L C R, Side: L R, LFE
Sampling rate                    : 48.0 KHz
Bit depth                        : 16 bits
Stream size                      : 1.02 GiB (15%)
Title                            : English DTS
Language                         : English

Text
ID                               : 4
Format                           : UTF-8
Codec ID                         : S_TEXT/UTF8
Codec ID/Info                    : UTF-8 Plain Text
Title                            : Nederlands
Language                         : Dutch


 
Genre : Komedie
Horror
 


 
Genre : Komedie
Horror
 
Weblink :  http://www.moviemeter.nl/film/60003 
Weblink :  http://www.imdb.com/title/tt0936471
 
 
 


TBS

Black-Sam
